# xmcd
#
# Track frame offsets: 
#        182
#        18302
#        33182
#        48295
#        66620
#        83050
#        99272
#        115672
#        132462
#        147900
#
# Disc length: 2206 seconds
#
# Revision: 2
# Processed by: cddbd v1.5.2PL0 Copyright (c) Steve Scherf et al.
# Submitted via: ExactAudioCopyFreeDBPlugin 1.0
#
DISCID=80089c0a
DTITLE=Vince Gill - Vintage Gill (Encore Collection)
DYEAR=1997
DGENRE=Country
TTITLE0=I Never Knew Lonely
TTITLE1=Oh Carolina
TTITLE2=Let's Do Something
TTITLE3=The Radio
TTITLE4=Oklahoma Borderline
TTITLE5=It Doesn't Matter Anymore
TTITLE6=Baby That's Tough
TTITLE7='Til The Best Comes Along
TTITLE8=What If I Say Goodbye
TTITLE9=The Way Back Home
EXTD=
EXTT0=
EXTT1=
EXTT2=
EXTT3=
EXTT4=
EXTT5=
EXTT6=
EXTT7=
EXTT8=
EXTT9=
PLAYORDER=
